<svg width="392" height="318" viewBox="0 0 392 318" fill="none" xmlns="http://www.w3.org/2000/svg">
<path d="M322.613 82.1049C320.269 80.1875 317.491 80.7951 314.925 80.7992C277.935 80.8575 240.945 81.0283 203.956 81.0355C200.433 81.0362 198.089 82.2421 195.875 84.9018C185.004 97.9579 173.972 110.88 162.56 124.407C108.393 188.165 54.2277 251.924 0 315.755C2.87706 317.947 5.28679 317.441 7.56641 317.443C44.0568 317.47 80.5494 317.265 117.036 317.63C124.308 317.703 128.978 315.321 133.537 309.821C163.62 273.528 194.015 237.494 224.307 201.375C255.991 163.596 287.683 125.822 319.328 88.0102C320.744 86.3186 322.878 84.8858 322.613 82.1049Z" fill="url(#paint0_linear_54_73)"/>
<path d="M384.867 0.145754C347.867 0.109958 310.867 0.178713 273.868 0.00024656C269.227 -0.0220925 266.065 1.47227 263.206 5.00806C256.505 13.2966 249.516 21.3535 242.164 30.0286C236.717 36.5476 231.236 43.0398 225.851 49.6096C224.846 50.8356 223.378 52.2216 224.348 54.0422C225.275 55.7844 227.172 55.5509 228.826 55.552C266.993 55.578 305.159 55.5802 343.325 55.6409C345.869 55.6449 347.692 54.8046 349.347 52.8342C362.74 36.8856 376.224 21.0131 389.646 5.08911C390.555 4.0119 391.897 2.95935 391.031 0.987551C389.204 -0.276212 386.977 0.147799 384.867 0.145754Z" fill="url(#paint1_linear_54_73)"/>
<path d="M344.103 182.447C344.101 180.533 344.496 178.33 341.24 177.007L341.139 177.126C326.737 194.12 312.179 211.298 297.146 229.002C273.195 257.334 248.853 285.346 225.448 314.015C227.627 316.113 229.177 315.919 230.649 315.92C266.639 315.934 302.629 315.901 338.618 315.983C342.655 315.993 344.211 314.55 344.201 310.411C344.098 267.757 344.136 225.102 344.103 182.447Z" fill="url(#paint2_linear_54_73)"/>
<path d="M100.98 0.155453C89.1529 0.145445 77.3228 0.27129 65.499 0.0529144C61.1889 -0.0266756 59.6677 1.40905 59.6807 5.79901C59.8077 48.6115 59.7585 91.4247 59.8057 134.237C59.8075 135.943 59.1604 137.972 62.3965 139.924C101.06 94.2494 139.842 48.4344 178.807 2.4035C177.42 1.38653 176.92 0.700649 176.392 0.677914C151.595 -0.388536 126.784 0.467891 100.98 0.155453Z" fill="url(#paint3_linear_54_73)"/>
<defs>
<linearGradient id="paint0_linear_54_73" x1="0" y1="48" x2="323" y2="48" gradientUnits="userSpaceOnUse">
<stop stop-color="#A5825B"/>
<stop offset="1" stop-color="#F3DBB7"/>
</linearGradient>
<linearGradient id="paint1_linear_54_73" x1="224" y1="48" x2="391" y2="10.5" gradientUnits="userSpaceOnUse">
<stop stop-color="#A5825B"/>
<stop offset="1" stop-color="#F3DBB7"/>
</linearGradient>
<linearGradient id="paint2_linear_54_73" x1="225" y1="293.5" x2="344" y2="293.5" gradientUnits="userSpaceOnUse">
<stop stop-color="#A5825B"/>
<stop offset="1" stop-color="#F3DBB7"/>
</linearGradient>
<linearGradient id="paint3_linear_54_73" x1="61" y1="53" x2="156.5" y2="53" gradientUnits="userSpaceOnUse">
<stop stop-color="#A5825B"/>
<stop offset="1" stop-color="#F3DBB7"/>
</linearGradient>
</defs>
</svg>
